<?xml version="1.0" standalone="no"?><!DOCTYPE svg PUBLIC "-//W3C//DTD SVG 1.1//EN" "http://www.w3.org/Graphics/SVG/1.1/DTD/svg11.dtd"><svg t="1651753684062" class="icon" viewBox="0 0 1024 1024" version="1.1" xmlns="http://www.w3.org/2000/svg" p-id="3589" xmlns:xlink="http://www.w3.org/1999/xlink" width="200" height="200"><defs><style type="text/css">@font-face { font-family: feedback-iconfont; src: url("//at.alicdn.com/t/font_1031158_u69w8yhxdu.woff2?t=1630033759944") format("woff2"), url("//at.alicdn.com/t/font_1031158_u69w8yhxdu.woff?t=1630033759944") format("woff"), url("//at.alicdn.com/t/font_1031158_u69w8yhxdu.ttf?t=1630033759944") format("truetype"); }
</style></defs><path d="M948.0192 259.6864a30.81728 30.81728 0 0 0-25.4464-13.568H264.7552l-15.4624-75.264c-5.6832-27.5968-30.2592-47.6672-58.4192-47.6672H112.896c-16.9472 0-30.72 13.7728-30.72 30.72s13.7728 30.72 30.72 30.72H189.44l93.1328 452.7104c7.8848 38.3488 42.0352 66.2016 81.2032 66.2016h445.44c16.9472 0 30.72-13.7728 30.72-30.72s-13.7728-30.72-30.72-30.72h-445.44c-10.1376 0-18.9952-7.2192-20.992-17.152l-16.2304-78.9504h499.6608a30.6176 30.6176 0 0 0 28.4672-19.2l96.4096-238.4896c3.7376-9.3696 2.6112-20.1216-3.072-28.6208zM805.376 484.6592H313.8048l-36.4032-177.0496h599.552L805.376 484.6592zM371.2512 728.9856c-51.456 0-93.2864 41.8304-93.2864 93.2864 0 51.456 41.8304 93.2864 93.2864 93.2864s93.2864-41.8304 93.2864-93.2864c0-51.4048-41.8816-93.2864-93.2864-93.2864z m0 125.1328c-17.5616 0-31.8464-14.2848-31.8464-31.8464 0-17.5616 14.2848-31.8464 31.8464-31.8464s31.8464 14.2848 31.8464 31.8464c0 17.5616-14.336 31.8464-31.8464 31.8464zM738.5088 728.9856c-51.456 0-93.2864 41.8304-93.2864 93.2864 0 51.456 41.8304 93.2864 93.2864 93.2864 51.456 0 93.2864-41.8304 93.2864-93.2864 0-51.4048-41.8304-93.2864-93.2864-93.2864z m0 125.1328c-17.5616 0-31.8464-14.2848-31.8464-31.8464 0-17.5616 14.2848-31.8464 31.8464-31.8464 17.5616 0 31.8464 14.2848 31.8464 31.8464 0 17.5616-14.2848 31.8464-31.8464 31.8464z" fill="#FF6C39" p-id="3590"></path></svg>