<?xml version="1.0" standalone="no"?><!DOCTYPE svg PUBLIC "-//W3C//DTD SVG 1.1//EN" "http://www.w3.org/Graphics/SVG/1.1/DTD/svg11.dtd"><svg t="1651753553744" class="icon" viewBox="0 0 1024 1024" version="1.1" xmlns="http://www.w3.org/2000/svg" p-id="17606" xmlns:xlink="http://www.w3.org/1999/xlink" width="200" height="200"><defs><style type="text/css">@font-face { font-family: feedback-iconfont; src: url("//at.alicdn.com/t/font_1031158_u69w8yhxdu.woff2?t=1630033759944") format("woff2"), url("//at.alicdn.com/t/font_1031158_u69w8yhxdu.woff?t=1630033759944") format("woff"), url("//at.alicdn.com/t/font_1031158_u69w8yhxdu.ttf?t=1630033759944") format("truetype"); }
</style></defs><path d="M576 821.077333v-149.333333a42.666667 42.666667 0 0 0-42.666667-42.666667h-42.666666a42.666667 42.666667 0 0 0-42.666667 42.666667v149.333333h-192a42.666667 42.666667 0 0 1-42.666667-42.666666V429.312a42.666667 42.666667 0 0 1 16.853334-33.962667l256-194.645333a42.666667 42.666667 0 0 1 51.626666 0l256 194.645333a42.666667 42.666667 0 0 1 16.853334 33.962667v349.098667a42.666667 42.666667 0 0 1-42.666667 42.666666h-192z" fill="#2A2A37" p-id="17607"></path></svg>